<svg width="24" height="24" viewBox="0 0 24 24" fill="none" xmlns="http://www.w3.org/2000/svg">
<path d="M13.0569 12L18.722 6.30973C19.0254 6.00629 19.0254 5.52577 18.722 5.24753C18.4185 4.9441 17.938 4.9441 17.6598 5.24753L11.9948 10.9378L6.30442 5.24753C6.00098 4.9441 5.52046 4.9441 5.24222 5.24753C4.93879 5.55096 4.93879 6.03148 5.24222 6.30973L10.9072 12L5.24222 17.6904C4.93879 17.9938 4.93879 18.4743 5.24222 18.7526C5.39394 18.9043 5.59628 18.9801 5.77341 18.9801C5.95054 18.9801 6.15269 18.9043 6.30459 18.7526L11.9949 13.0622L17.6852 18.7526C17.8369 18.9043 18.0393 18.9801 18.2164 18.9801C18.3936 18.9801 18.5957 18.9043 18.7476 18.7526C19.051 18.4491 19.051 17.9686 18.7476 17.6904L13.0569 12Z" fill="#0500E4"/>
</svg>
