<svg xmlns="http://www.w3.org/2000/svg" width="169.979" height="169.979" viewBox="0 0 169.979 169.979"><defs><style>.a{fill:none;}.b{fill:#f60;}.c,.d{stroke:none;}.d{fill:#fff;}</style></defs><g transform="translate(-183.438 -2968.417)"><g class="a" transform="translate(183.438 2968.417)"><path class="c" d="M84.99,0A84.99,84.99,0,1,1,0,84.99,84.99,84.99,0,0,1,84.99,0Z"/><path class="d" d="M 84.98958587646484 5 C 74.18885040283203 5 63.71385192871094 7.114212036132812 53.85556030273438 11.283935546875 C 49.11692810058594 13.28822326660156 44.54613494873047 15.76919555664062 40.2701416015625 18.65800476074219 C 36.03347778320312 21.52024841308594 32.04934692382812 24.80747985839844 28.42840576171875 28.42840576171875 C 24.80747985839844 32.04934692382812 21.52024841308594 36.03347778320312 18.65800476074219 40.2701416015625 C 15.76919555664062 44.54613494873047 13.28822326660156 49.11692810058594 11.283935546875 53.85556030273438 C 7.114212036132812 63.71385192871094 5 74.18885040283203 5 84.98958587646484 C 5 95.79032135009766 7.114212036132812 106.2653198242188 11.283935546875 116.1236114501953 C 13.28822326660156 120.8622436523438 15.76919555664062 125.4330291748047 18.65800476074219 129.7090301513672 C 21.52024841308594 133.9456939697266 24.80747985839844 137.9298248291016 28.42840576171875 141.5507659912109 C 32.04934692382812 145.1716918945312 36.03347778320312 148.4589233398438 40.2701416015625 151.3211669921875 C 44.54613494873047 154.2099761962891 49.11692810058594 156.6909484863281 53.85556030273438 158.6952514648438 C 63.71385192871094 162.8649597167969 74.18885040283203 164.9791717529297 84.98958587646484 164.9791717529297 C 95.79032135009766 164.9791717529297 106.2653198242188 162.8649597167969 116.1236114501953 158.6952514648438 C 120.8622436523438 156.6909484863281 125.4330291748047 154.2099761962891 129.7090301513672 151.3211669921875 C 133.9456939697266 148.4589233398438 137.9298248291016 145.1716918945312 141.5507659912109 141.5507659912109 C 145.1716918945312 137.9298248291016 148.4589233398438 133.9456939697266 151.3211669921875 129.7090301513672 C 154.2099761962891 125.4330291748047 156.6909484863281 120.8622436523438 158.6952514648438 116.1236114501953 C 162.8649597167969 106.2653198242188 164.9791717529297 95.79032135009766 164.9791717529297 84.98958587646484 C 164.9791717529297 74.18885040283203 162.8649597167969 63.71385192871094 158.6952514648438 53.85556030273438 C 156.6909484863281 49.11692810058594 154.2099761962891 44.54613494873047 151.3211669921875 40.2701416015625 C 148.4589233398438 36.03347778320312 145.1716918945312 32.04934692382812 141.5507659912109 28.42840576171875 C 137.9298248291016 24.80747985839844 133.9456939697266 21.52024841308594 129.7090301513672 18.65800476074219 C 125.4330291748047 15.76919555664062 120.8622436523438 13.28822326660156 116.1236114501953 11.283935546875 C 106.2653198242188 7.114212036132812 95.79032135009766 5 84.98958587646484 5 M 84.98958587646484 0 C 131.9280395507812 0 169.9791717529297 38.05113220214844 169.9791717529297 84.98958587646484 C 169.9791717529297 131.9280395507812 131.9280395507812 169.9791717529297 84.98958587646484 169.9791717529297 C 38.05113220214844 169.9791717529297 0 131.9280395507812 0 84.98958587646484 C 0 38.05113220214844 38.05113220214844 0 84.98958587646484 0 Z"/></g><path class="b" d="M23.419,9A6,6,0,0,1,33.81,9L52.03,40.541a6,6,0,0,1-5.2,9H10.394a6,6,0,0,1-5.2-9Z" transform="translate(301.74 3025.219) rotate(90)"/></g></svg>